<?xml version="1.0" standalone="no"?>
<!DOCTYPE svg PUBLIC "-//W3C//DTD SVG 20010904//EN"
 "http://www.w3.org/TR/2001/REC-SVG-20010904/DTD/svg10.dtd">
<svg version="1.0" xmlns="http://www.w3.org/2000/svg"
 width="72.000000pt" height="72.000000pt" viewBox="0 0 72.000000 72.000000"
 preserveAspectRatio="xMidYMid meet">
<metadata>
Created by potrace 1.11, written by Peter Selinger 2001-2013
</metadata>
<g transform="translate(0.000000,72.000000) scale(0.100000,-0.100000)"
fill="#000000" stroke="none">
<path d="M107 703 c-4 -6 -19 -73 -33 -138 -8 -44 -30 -146 -39 -190 -3 -11
-7 -29 -9 -40 -2 -11 -9 -42 -16 -69 -12 -55 -10 -60 31 -62 32 -1 35 6 60
134 l12 62 41 0 42 0 23 -107 c12 -60 24 -112 25 -118 1 -5 8 -37 15 -70 21
-100 17 -95 70 -95 l48 0 13 63 c7 34 14 69 15 77 2 8 11 51 20 95 10 44 18
81 20 83 2 3 28 -107 58 -248 l13 -65 50 0 49 0 32 150 c18 83 41 192 53 244
11 51 18 96 15 100 -14 13 -65 7 -70 -8 -5 -16 -43 -194 -51 -241 -3 -14 -10
-47 -17 -74 l-13 -50 -38 175 c-21 96 -38 180 -38 187 -1 14 -1 13 -45 17 -36
2 -32 14 -68 -164 -13 -64 -29 -138 -36 -166 l-12 -49 -62 284 -61 285 -46 3
c-25 2 -48 -1 -51 -5z m57 -158 c18 -90 18 -85 -9 -85 -29 0 -29 1 -13 69 13
57 14 58 22 16z"/>
</g>
</svg>
